<svg version="1" xmlns="http://www.w3.org/2000/svg" width="346.667" height="346.667" viewBox="0 0 260.000000 260.000000"><path d="M111.5 1.1c-10.2 1.5-22.7 4.3-25.2 5.7-.6.4 2.8.7 7.5.8 17.6.1 25.9 5.2 27.6 17 .6 3.9-2.5 13.7-5.9 18.7-7.2 10.8-22 24.3-49.3 45.1-31.6 23.9-45.2 39.9-52.8 62.1-2.4 6.9-2.8 9.6-2.8 20-.1 12.2 1.2 18 6.2 28 5.4 10.9 24.2 30.4 38.4 39.8 8.8 5.9 21.8 12.5 28.2 14.4l3.9 1.2-3.3-3.2c-8.4-8.2-15.1-20.4-17.1-31.4-1-5.4-.7-20.7.5-26.2 1-4.6 4.7-14.3 7.3-19.4 13.6-26.9 36.9-51.6 71.6-75.8 29.1-20.3 38.6-28.8 43.9-39.7 2.9-5.8 3.3-7.7 3.3-14.2 0-6.3-.5-8.4-2.9-13-4.6-8.8-14.8-18.1-25.8-23.4-9.3-4.5-20-7.3-23.8-6.3-1.1.3-1.8.2-1.6-.2.6-1-21.5-1-27.9 0z"/><path d="M70.3 17.1c-11.1 1.5-23.2 9.2-37.1 23.8C20.7 53.8 11 69.6 5.1 86.5l-3.2 9 6.8-7.1c6.9-7.2 16.8-14.9 28.1-22 32.2-20 44.8-29.8 47.7-36.8 1.9-4.5 1.9-5.6-.3-8.3-2.7-3.5-7.9-5.1-13.9-4.2zM201 25c3.2 4.5 7.6 14.7 9.4 22 7.1 29 2.2 48.4-17.7 69.1-5.4 5.7-17.8 15.6-36.2 28.9-9.3 6.7-19.5 14.3-22.5 16.9-17.7 14.8-29.6 30.8-35 47.1-2.1 6.1-2.4 7.3-3.4 11.8-1.7 8-2.1 15.9-1.1 25.2.7 6.9 1.4 9 1.6 4.7.1-1.5.2-3 .3-3.5 2.7-10.1 7.7-18.4 17.5-28.5 13.5-14 31.6-26.9 58.6-41.7 27.1-14.9 33.8-19.2 42.1-27.5 5.1-5 11.2-13.5 14.2-19.8 1.3-2.6 2.4-4.7 2.6-4.7.1 0-.1 3.3-.5 7.2-2.7 27.5-12.8 54.9-28.6 77.2-12.5 17.5-35.1 36.9-54.5 46.7-3.3 1.7-5.8 3.2-5.5 3.5.7.7 19.1-3.3 26.7-5.7 45.9-15 80.5-56.3 87.8-104.9 1.5-9.6.5-42.1-1.3-45-.2-.4-.6-1.9-.9-3.4-3.8-20.9-19.1-47.5-37.2-64.7-5.7-5.4-16.7-13.9-17.9-13.9-.4 0 .3 1.3 1.5 3z"/></svg>